<svg width="100" height="61" viewBox="0 0 100 61" fill="none" xmlns="http://www.w3.org/2000/svg">
<mask id="path-1-outside-1_2043_700" maskUnits="userSpaceOnUse" x="0" y="0" width="100" height="61" fill="black">
<rect fill="white" width="100" height="61"/>
<path d="M38.0615 5C42.9272 5.00006 47.3647 6.40647 50.7236 8.71777C53.6891 7.50889 57.0936 6.82134 60.7139 6.82129C71.8014 6.82129 80.8633 13.2687 81.4941 21.3975C81.608 21.3944 81.7224 21.3926 81.8369 21.3926C89.1067 21.3927 95 27.6452 95 35.3574C94.9999 43.0695 89.1066 49.3212 81.8369 49.3213C80.2365 49.3213 78.703 49.0177 77.2842 48.4629C75.3169 52.56 71.1053 55.3925 66.2246 55.3926C61.8629 55.3926 58.0363 53.1297 55.8672 49.7246C52.6767 53.5407 47.6707 55.9999 42.041 56C35.9545 56 30.5969 53.1256 27.4746 48.7695C25.3359 49.896 22.8961 50.5361 20.3057 50.5361C11.8526 50.5359 5.00015 43.74 5 35.3574C5 27.3765 11.2113 20.8337 19.1016 20.2246C19.0891 20.0081 19.082 19.7902 19.082 19.5713C19.0821 11.5238 27.5794 5 38.0615 5Z"/>
</mask>
<path d="M38.0615 5C42.9272 5.00006 47.3647 6.40647 50.7236 8.71777C53.6891 7.50889 57.0936 6.82134 60.7139 6.82129C71.8014 6.82129 80.8633 13.2687 81.4941 21.3975C81.608 21.3944 81.7224 21.3926 81.8369 21.3926C89.1067 21.3927 95 27.6452 95 35.3574C94.9999 43.0695 89.1066 49.3212 81.8369 49.3213C80.2365 49.3213 78.703 49.0177 77.2842 48.4629C75.3169 52.56 71.1053 55.3925 66.2246 55.3926C61.8629 55.3926 58.0363 53.1297 55.8672 49.7246C52.6767 53.5407 47.6707 55.9999 42.041 56C35.9545 56 30.5969 53.1256 27.4746 48.7695C25.3359 49.896 22.8961 50.5361 20.3057 50.5361C11.8526 50.5359 5.00015 43.74 5 35.3574C5 27.3765 11.2113 20.8337 19.1016 20.2246C19.0891 20.0081 19.082 19.7902 19.082 19.5713C19.0821 11.5238 27.5794 5 38.0615 5Z" fill="white"/>
<path d="M38.0615 5L38.0616 0H38.0615V5ZM50.7236 8.71777L47.8893 12.8368C49.2767 13.7915 51.0515 13.9836 52.6111 13.3478L50.7236 8.71777ZM60.7139 6.82129V1.82129H60.7138L60.7139 6.82129ZM81.4941 21.3975L76.5091 21.7843C76.7152 24.4399 78.967 26.4678 81.6296 26.3956L81.4941 21.3975ZM81.8369 21.3926L81.837 16.3926H81.8369V21.3926ZM95 35.3574L100 35.3575V35.3574H95ZM81.8369 49.3213V54.3213H81.837L81.8369 49.3213ZM77.2842 48.4629L79.1052 43.8063C76.6686 42.8534 73.9093 43.9401 72.7768 46.2987L77.2842 48.4629ZM66.2246 55.3926V60.3926H66.2247L66.2246 55.3926ZM55.8672 49.7246L60.0843 47.0383C59.2276 45.6935 57.781 44.8379 56.1899 44.735C54.5988 44.6321 53.054 45.2942 52.0313 46.5175L55.8672 49.7246ZM42.041 56V61H42.0411L42.041 56ZM27.4746 48.7695L31.5385 45.8567C30.0836 43.8269 27.3542 43.1819 25.1446 44.3456L27.4746 48.7695ZM20.3057 50.5361L20.3055 55.5361H20.3057V50.5361ZM5 35.3574H0V35.3575L5 35.3574ZM19.1016 20.2246L19.4864 25.2098C22.2015 25.0002 24.2496 22.6564 24.0933 19.9378L19.1016 20.2246ZM19.082 19.5713L14.082 19.5712V19.5713H19.082ZM38.0615 5L38.0615 10C41.9874 10 45.4219 11.139 47.8893 12.8368L50.7236 8.71777L53.558 4.59872C49.3075 1.67395 43.867 6.86646e-05 38.0616 0L38.0615 5ZM50.7236 8.71777L52.6111 13.3478C54.9588 12.3908 57.7204 11.8213 60.7139 11.8213L60.7139 6.82129L60.7138 1.82129C56.4667 1.82135 52.4195 2.62697 48.8362 4.0877L50.7236 8.71777ZM60.7139 6.82129V11.8213C65.3207 11.8213 69.332 13.1664 72.1456 15.1486C74.9697 17.1381 76.3356 19.5482 76.5091 21.7843L81.4941 21.3975L86.4791 21.0106C86.0219 15.1179 82.5414 10.2399 77.9049 6.97357C73.258 3.69986 67.1945 1.82129 60.7139 1.82129V6.82129ZM81.4941 21.3975L81.6296 26.3956C81.7057 26.3936 81.7743 26.3926 81.8369 26.3926V21.3926V16.3926C81.6704 16.3926 81.5103 16.3952 81.3587 16.3993L81.4941 21.3975ZM81.8369 21.3926L81.8368 26.3926C86.0708 26.3926 90 30.124 90 35.3574H95H100C100 25.1665 92.1426 16.3927 81.837 16.3926L81.8369 21.3926ZM95 35.3574L90 35.3573C89.9999 40.5903 86.0711 44.3212 81.8368 44.3213L81.8369 49.3213L81.837 54.3213C92.1421 54.3211 99.9998 45.5486 100 35.3575L95 35.3574ZM81.8369 49.3213V44.3213C80.8748 44.3213 79.958 44.1398 79.1052 43.8063L77.2842 48.4629L75.4631 53.1195C77.4479 53.8957 79.5982 54.3213 81.8369 54.3213V49.3213ZM77.2842 48.4629L72.7768 46.2987C71.6171 48.714 69.1261 50.3926 66.2246 50.3926L66.2246 55.3926L66.2247 60.3926C73.0845 60.3925 79.0167 56.406 81.7915 50.6271L77.2842 48.4629ZM66.2246 55.3926V50.3926C63.6322 50.3926 61.3684 49.0541 60.0843 47.0383L55.8672 49.7246L51.6501 52.4109C54.7042 57.2053 60.0936 60.3926 66.2246 60.3926V55.3926ZM55.8672 49.7246L52.0313 46.5175C49.8046 49.1807 46.2113 51 42.041 51L42.041 56L42.0411 61C49.1301 60.9999 55.5488 57.9006 59.7031 52.9318L55.8672 49.7246ZM42.041 56V51C37.528 51 33.6996 48.8718 31.5385 45.8567L27.4746 48.7695L23.4107 51.6824C27.4941 57.3793 34.3809 61 42.041 61V56ZM27.4746 48.7695L25.1446 44.3456C23.7057 45.1035 22.0634 45.5361 20.3057 45.5361V50.5361V55.5361C23.7288 55.5361 26.9661 54.6884 29.8046 53.1934L27.4746 48.7695ZM20.3057 50.5361L20.3058 45.5361C14.5748 45.536 10.0001 40.9394 10 35.3573L5 35.3574L0 35.3575C0.000202656 46.5406 9.1305 55.5358 20.3055 55.5361L20.3057 50.5361ZM5 35.3574H10C10 30.0437 14.1453 25.6221 19.4864 25.2098L19.1016 20.2246L18.7167 15.2394C8.27724 16.0454 0 24.7093 0 35.3574H5ZM19.1016 20.2246L24.0933 19.9378C24.0856 19.804 24.082 19.6826 24.082 19.5713H19.082H14.082C14.082 19.8978 14.0926 20.2121 14.1098 20.5115L19.1016 20.2246ZM19.082 19.5713L24.082 19.5714C24.0821 17.4242 25.2032 15.1399 27.6859 13.2338C30.1737 11.3238 33.8254 10 38.0615 10V5V0C31.8155 0 25.9775 1.93813 21.5962 5.30185C17.2097 8.66954 14.0821 13.6708 14.082 19.5712L19.082 19.5713Z" fill="#CFCFCF" mask="url(#path-1-outside-1_2043_700)"/>
<mask id="mask0_2043_700" style="mask-type:alpha" maskUnits="userSpaceOnUse" x="5" y="5" width="90" height="51">
<path d="M38.0615 5C42.9272 5.00006 47.3647 6.40647 50.7236 8.71777C53.6891 7.50889 57.0936 6.82134 60.7139 6.82129C71.8014 6.82129 80.8633 13.2687 81.4941 21.3975C81.608 21.3944 81.7224 21.3926 81.8369 21.3926C89.1067 21.3927 95 27.6452 95 35.3574C94.9999 43.0695 89.1066 49.3212 81.8369 49.3213C80.2365 49.3213 78.703 49.0177 77.2842 48.4629C75.3169 52.56 71.1053 55.3925 66.2246 55.3926C61.8629 55.3926 58.0363 53.1297 55.8672 49.7246C52.6767 53.5407 47.6707 55.9999 42.041 56C35.9545 56 30.5969 53.1256 27.4746 48.7695C25.3359 49.896 22.8961 50.5361 20.3057 50.5361C11.8526 50.5359 5.00015 43.74 5 35.3574C5 27.3765 11.2113 20.8337 19.1016 20.2246C19.0891 20.0081 19.082 19.7902 19.082 19.5713C19.0821 11.5238 27.5794 5 38.0615 5Z" fill="white"/>
</mask>
<g mask="url(#mask0_2043_700)">
<path d="M-2.34715 24.4285C-11.9866 8.59642 -2.34704 65.1071 -2.34704 65.1071H108.775L111.837 49.625C111.837 49.625 53.9796 50.1355 39.5918 46.8928C19.6939 42.4083 7.44886 40.5178 -2.34715 24.4285Z" fill="#F4F4F4"/>
</g>
</svg>
