<svg width="320" height="320" viewBox="0 0 320 320" fill="none" xmlns="http://www.w3.org/2000/svg">
<circle cx="160" cy="160" r="160" fill="#FD5D5D"/>
<rect x="66" y="68" width="210" height="122" rx="10" fill="black"/>
<rect x="76" y="79" width="191" height="101" fill="white"/>
<rect x="160" y="190" width="22" height="23" fill="black"/>
<rect x="88" y="97" width="166" height="20" fill="#FAB8BC"/>
<rect x="88" y="129" width="72" height="40" fill="#FADCB8"/>
<rect x="76" y="79" width="191" height="11" fill="#D27B80"/>
<rect x="178" y="129" width="76" height="10" fill="#FAB8BC"/>
<rect x="178" y="153" width="76" height="6" fill="#FAB8BC"/>
<rect x="99" y="213" width="144" height="13" rx="6.5" fill="black"/>
<rect x="178" y="143" width="76" height="6" fill="#FAB8BC"/>
<rect x="178" y="163" width="76" height="6" fill="#FAB8BC"/>
<rect x="13" y="258" width="137" height="106" rx="10" transform="rotate(-90 13 258)" fill="black"/>
<path d="M22 247L22 133H109L109 247L22 247Z" fill="white"/>
<rect x="29" y="149" width="72" height="31" fill="#FAB8BC"/>
<rect x="27" y="230" width="76" height="10" fill="#FAB8BC"/>
<rect x="22" y="133" width="87" height="11" fill="#D27B80"/>
<rect x="29" y="185" width="72" height="40" fill="#FADCB8"/>
<rect x="246" y="258" width="110" height="61" rx="10" transform="rotate(-90 246 258)" fill="black"/>
<path d="M251 243L251 160H301V243L251 243Z" fill="white"/>
<rect x="251" y="158" width="50" height="7" fill="#D27B80"/>
<rect x="251" y="165" width="50" height="17" fill="#FAB8BC"/>
<rect x="258" y="219" width="35" height="10" fill="#FAB8BC"/>
<rect x="255" y="233" width="42" height="5" fill="#FAB8BC"/>
<rect x="254" y="187" width="43" height="27" fill="#FADCB8"/>
</svg>
