<svg width="320" height="320" viewBox="0 0 320 320" fill="none" xmlns="http://www.w3.org/2000/svg">
<circle cx="160" cy="160" r="160" fill="#8DEE60"/>
<rect x="93" y="42" width="132.347" height="239" rx="10" fill="black"/>
<rect x="105.032" y="54.7224" width="106.565" height="207.194" fill="#FDF7F7"/>
<rect x="105" y="55" width="106" height="28" fill="#F5A52D"/>
<rect x="121" y="93" width="76" height="44" fill="#FFEF61"/>
<rect x="120" y="212" width="76" height="7" fill="#FFD9A0"/>
<rect x="120" y="226" width="76" height="7" fill="#FFD9A0"/>
<rect x="120" y="240" width="76" height="7" fill="#FFD9A0"/>
<rect x="60.2633" y="23.4052" width="336.891" height="56.3679" transform="rotate(45 60.2633 23.4052)" fill="#BAC1CA"/>
<rect x="72.9382" y="36" width="6.93187" height="19.7116" transform="rotate(45 72.9382 36)" fill="#6C6F72"/>
<rect x="91.9382" y="55" width="6.93187" height="19.7116" transform="rotate(45 91.9382 55)" fill="#6C6F72"/>
<rect x="110.938" y="74" width="6.93187" height="19.7116" transform="rotate(45 110.938 74)" fill="#6C6F72"/>
<rect x="129.938" y="93" width="6.93187" height="19.7116" transform="rotate(45 129.938 93)" fill="#6C6F72"/>
<rect x="148.938" y="112" width="6.93187" height="19.7116" transform="rotate(45 148.938 112)" fill="#6C6F72"/>
<rect x="205.938" y="169" width="6.93187" height="19.7116" transform="rotate(45 205.938 169)" fill="#6C6F72"/>
<rect x="224.938" y="188" width="6.93187" height="19.7116" transform="rotate(45 224.938 188)" fill="#6C6F72"/>
<rect x="243.938" y="207" width="6.93187" height="19.7116" transform="rotate(45 243.938 207)" fill="#6C6F72"/>
<rect x="260.938" y="226" width="6.93187" height="19.7116" transform="rotate(45 260.938 226)" fill="#6C6F72"/>
<rect x="279.938" y="243" width="6.93187" height="19.7116" transform="rotate(45 279.938 243)" fill="#6C6F72"/>
<rect x="50.8328" y="243.04" width="41.5412" height="41.1309" rx="4" transform="rotate(45 50.8328 243.04)" fill="#FF8CCA"/>
<rect x="217.172" y="76.1867" width="41.8389" height="242.215" transform="rotate(45 217.172 76.1867)" fill="#F9CD30"/>
<path d="M284.374 39.9785L246.353 106.175L216.768 76.5906L284.374 39.9785Z" fill="#E3A761"/>
<path d="M284.374 39.9786L274.058 58.7469L265.605 50.2942L284.374 39.9786Z" fill="black"/>
</svg>
